# xmcd
# 
# Track frame offsets:
#     150
#     20859
#     40481
#     52399
#     72547
#     86078
#     103019
#     119138
#     135828
#     151368
#     168942
#     186601
#     202225
#     219434
#     232453
#     252016
#     263607
#     285354
# 
# Disc length: 4025
# 
# Revision: 0
# Processed by: cddbd v1.5.2PL0 Copyright (c) Steve Scherf et al.
# Submitted via: BonkEnc v1.0.8
# 
DISCID=200fb712
DTITLE=Garth Brooks - The Hits
DYEAR=1994
DGENRE=
TTITLE0=Ain't Going Down (Til The Sun Comes Up)
TTITLE1=Friends In Low Places
TTITLE2=Callin' Baton Rouge
TTITLE3=The River
TTITLE4=Much Too Young (To Feel This Damn Old)
TTITLE5=The Thunder Rolls
TTITLE6=American Honky-Tonk Bar Association
TTITLE7=If Tomorrow Never Comes
TTITLE8=Unanswered Prayers
TTITLE9=Standing Outside The Fire
TTITLE10=Rodeo
TTITLE11=What She's Doing Now
TTITLE12=We Shall Be Free
TTITLE13=Papa Loved Mama
TTITLE14=Shameless
TTITLE15=Two Of A Kind, Workin' On A Full House
TTITLE16=That Summer
TTITLE17=The Dance
EXTD=YEAR: 1994
EXTT0=
EXTT1=
EXTT2=
EXTT3=
EXTT4=
EXTT5=
EXTT6=
EXTT7=
EXTT8=
EXTT9=
EXTT10=
EXTT11=
EXTT12=
EXTT13=
EXTT14=
EXTT15=
EXTT16=
EXTT17=
PLAYORDER=
